<svg xmlns="http://www.w3.org/2000/svg" width="24.294" height="23.911" viewBox="0 0 24.294 23.911">
  <g id="Group_345" data-name="Group 345" transform="translate(441.04 -838.688) rotate(90)">
    <path id="Path_9" data-name="Path 9" d="M8.918,28.52v.594c0,3.237-.99,4.228-4.228,4.228H4.228C.991,33.342,0,32.351,0,29.114V28.52c0-3.171.991-4.228,4.228-4.228H4.69c3.238,0,4.228,1.056,4.228,4.228" transform="translate(838.688 407.698)" fill="#fff"/>
    <g id="Group_94" data-name="Group 94" transform="translate(838.688 416.747)">
      <path id="Path_7" data-name="Path 7" d="M8.918,7.4V8c0,3.237-.99,4.228-4.228,4.228H4.228C.991,12.226,0,11.236,0,8V7.4C0,4.233.991,3.177,4.228,3.177H4.69c3.238,0,4.228,1.056,4.228,4.228" transform="translate(0 -3.177)" fill="#fff"/>
      <path id="Path_8" data-name="Path 8" d="M29.686,7.4V8c0,3.237-.99,4.228-4.228,4.228H25c-3.236,0-4.228-.99-4.228-4.228V7.4c0-3.171.991-4.228,4.228-4.228h.463c3.238,0,4.228,1.056,4.228,4.228" transform="translate(-5.775 -3.177)" fill="#fff"/>
      <path id="Path_10" data-name="Path 10" d="M29.686,28.52v.594c0,3.237-.99,4.228-4.228,4.228H25c-3.236,0-4.228-.991-4.228-4.228V28.52c0-3.171.991-4.228,4.228-4.228h.463c3.238,0,4.228,1.056,4.228,4.228" transform="translate(-5.775 -9.049)" fill="#fff"/>
      <path id="Path_11" data-name="Path 11" d="M19.2,17.962v.594c0,3.237-.99,4.228-4.228,4.228h-.463c-3.236,0-4.228-.991-4.228-4.228v-.594c0-3.171.991-4.228,4.228-4.228h.463c3.238,0,4.228,1.056,4.228,4.228" transform="translate(-2.86 -6.113)" fill="#fff"/>
    </g>
  </g>
</svg>
