<svg xmlns="http://www.w3.org/2000/svg" width="804.293" height="23.911" viewBox="0 0 804.293 23.911"><g transform="translate(3281.5 -928) rotate(90)"><g transform="translate(0 134.707)"><g transform="translate(0 175.5)"><g transform="translate(89.312 1750.253)"><path d="M8.918,28.52v.594c0,3.237-.99,4.228-4.228,4.228H4.228C.991,33.342,0,32.351,0,29.114V28.52c0-3.171.991-4.228,4.228-4.228H4.69c3.238,0,4.228,1.056,4.228,4.228" transform="translate(838.688 407.698)" fill="#fff"/><g transform="translate(838.688 416.747)"><path d="M8.918,7.4V8c0,3.237-.99,4.228-4.228,4.228H4.228C.991,12.226,0,11.236,0,8V7.4C0,4.233.991,3.177,4.228,3.177H4.69c3.238,0,4.228,1.056,4.228,4.228" transform="translate(0 -3.177)" fill="#fff"/><path d="M29.686,7.4V8c0,3.237-.99,4.228-4.228,4.228H25c-3.236,0-4.228-.99-4.228-4.228V7.4c0-3.171.991-4.228,4.228-4.228h.463c3.238,0,4.228,1.056,4.228,4.228" transform="translate(-5.775 -3.177)" fill="#fff"/><path d="M29.686,28.52v.594c0,3.237-.99,4.228-4.228,4.228H25c-3.236,0-4.228-.991-4.228-4.228V28.52c0-3.171.991-4.228,4.228-4.228h.463c3.238,0,4.228,1.056,4.228,4.228" transform="translate(-5.775 -9.049)" fill="#fff"/><path d="M19.2,17.962v.594c0,3.237-.99,4.228-4.228,4.228h-.463c-3.236,0-4.228-.991-4.228-4.228v-.594c0-3.171.991-4.228,4.228-4.228h.463c3.238,0,4.228,1.056,4.228,4.228" transform="translate(-2.86 -6.113)" fill="#fff"/></g></g><g transform="translate(89.312 1789.253)"><path d="M8.918,28.52v.594c0,3.237-.99,4.228-4.228,4.228H4.228C.991,33.342,0,32.351,0,29.114V28.52c0-3.171.991-4.228,4.228-4.228H4.69c3.238,0,4.228,1.056,4.228,4.228" transform="translate(838.688 407.698)" fill="#fff"/><g transform="translate(838.688 416.747)"><path d="M8.918,7.4V8c0,3.237-.99,4.228-4.228,4.228H4.228C.991,12.226,0,11.236,0,8V7.4C0,4.233.991,3.177,4.228,3.177H4.69c3.238,0,4.228,1.056,4.228,4.228" transform="translate(0 -3.177)" fill="#fff"/><path d="M29.686,7.4V8c0,3.237-.99,4.228-4.228,4.228H25c-3.236,0-4.228-.99-4.228-4.228V7.4c0-3.171.991-4.228,4.228-4.228h.463c3.238,0,4.228,1.056,4.228,4.228" transform="translate(-5.775 -3.177)" fill="#fff"/><path d="M29.686,28.52v.594c0,3.237-.99,4.228-4.228,4.228H25c-3.236,0-4.228-.991-4.228-4.228V28.52c0-3.171.991-4.228,4.228-4.228h.463c3.238,0,4.228,1.056,4.228,4.228" transform="translate(-5.775 -9.049)" fill="#fff"/><path d="M19.2,17.962v.594c0,3.237-.99,4.228-4.228,4.228h-.463c-3.236,0-4.228-.991-4.228-4.228v-.594c0-3.171.991-4.228,4.228-4.228h.463c3.238,0,4.228,1.056,4.228,4.228" transform="translate(-2.86 -6.113)" fill="#fff"/></g></g><g transform="translate(89.312 1828.253)"><path d="M8.918,28.52v.594c0,3.237-.99,4.228-4.228,4.228H4.228C.991,33.342,0,32.351,0,29.114V28.52c0-3.171.991-4.228,4.228-4.228H4.69c3.238,0,4.228,1.056,4.228,4.228" transform="translate(838.688 407.698)" fill="#fff"/><g transform="translate(838.688 416.747)"><path d="M8.918,7.4V8c0,3.237-.99,4.228-4.228,4.228H4.228C.991,12.226,0,11.236,0,8V7.4C0,4.233.991,3.177,4.228,3.177H4.69c3.238,0,4.228,1.056,4.228,4.228" transform="translate(0 -3.177)" fill="#fff"/><path d="M29.686,7.4V8c0,3.237-.99,4.228-4.228,4.228H25c-3.236,0-4.228-.99-4.228-4.228V7.4c0-3.171.991-4.228,4.228-4.228h.463c3.238,0,4.228,1.056,4.228,4.228" transform="translate(-5.775 -3.177)" fill="#fff"/><path d="M29.686,28.52v.594c0,3.237-.99,4.228-4.228,4.228H25c-3.236,0-4.228-.991-4.228-4.228V28.52c0-3.171.991-4.228,4.228-4.228h.463c3.238,0,4.228,1.056,4.228,4.228" transform="translate(-5.775 -9.049)" fill="#fff"/><path d="M19.2,17.962v.594c0,3.237-.99,4.228-4.228,4.228h-.463c-3.236,0-4.228-.991-4.228-4.228v-.594c0-3.171.991-4.228,4.228-4.228h.463c3.238,0,4.228,1.056,4.228,4.228" transform="translate(-2.86 -6.113)" fill="#fff"/></g></g><g transform="translate(89.312 1867.253)"><path d="M8.918,28.52v.594c0,3.237-.99,4.228-4.228,4.228H4.228C.991,33.342,0,32.351,0,29.114V28.52c0-3.171.991-4.228,4.228-4.228H4.69c3.238,0,4.228,1.056,4.228,4.228" transform="translate(838.688 407.698)" fill="#fff"/><g transform="translate(838.688 416.747)"><path d="M8.918,7.4V8c0,3.237-.99,4.228-4.228,4.228H4.228C.991,12.226,0,11.236,0,8V7.4C0,4.233.991,3.177,4.228,3.177H4.69c3.238,0,4.228,1.056,4.228,4.228" transform="translate(0 -3.177)" fill="#fff"/><path d="M29.686,7.4V8c0,3.237-.99,4.228-4.228,4.228H25c-3.236,0-4.228-.99-4.228-4.228V7.4c0-3.171.991-4.228,4.228-4.228h.463c3.238,0,4.228,1.056,4.228,4.228" transform="translate(-5.775 -3.177)" fill="#fff"/><path d="M29.686,28.52v.594c0,3.237-.99,4.228-4.228,4.228H25c-3.236,0-4.228-.991-4.228-4.228V28.52c0-3.171.991-4.228,4.228-4.228h.463c3.238,0,4.228,1.056,4.228,4.228" transform="translate(-5.775 -9.049)" fill="#fff"/><path d="M19.2,17.962v.594c0,3.237-.99,4.228-4.228,4.228h-.463c-3.236,0-4.228-.991-4.228-4.228v-.594c0-3.171.991-4.228,4.228-4.228h.463c3.238,0,4.228,1.056,4.228,4.228" transform="translate(-2.86 -6.113)" fill="#fff"/></g></g><g transform="translate(89.312 1906.253)"><path d="M8.918,28.52v.594c0,3.237-.99,4.228-4.228,4.228H4.228C.991,33.342,0,32.351,0,29.114V28.52c0-3.171.991-4.228,4.228-4.228H4.69c3.238,0,4.228,1.056,4.228,4.228" transform="translate(838.688 407.698)" fill="#fff"/><g transform="translate(838.688 416.747)"><path d="M8.918,7.4V8c0,3.237-.99,4.228-4.228,4.228H4.228C.991,12.226,0,11.236,0,8V7.4C0,4.233.991,3.177,4.228,3.177H4.69c3.238,0,4.228,1.056,4.228,4.228" transform="translate(0 -3.177)" fill="#fff"/><path d="M29.686,7.4V8c0,3.237-.99,4.228-4.228,4.228H25c-3.236,0-4.228-.99-4.228-4.228V7.4c0-3.171.991-4.228,4.228-4.228h.463c3.238,0,4.228,1.056,4.228,4.228" transform="translate(-5.775 -3.177)" fill="#fff"/><path d="M29.686,28.52v.594c0,3.237-.99,4.228-4.228,4.228H25c-3.236,0-4.228-.991-4.228-4.228V28.52c0-3.171.991-4.228,4.228-4.228h.463c3.238,0,4.228,1.056,4.228,4.228" transform="translate(-5.775 -9.049)" fill="#fff"/><path d="M19.2,17.962v.594c0,3.237-.99,4.228-4.228,4.228h-.463c-3.236,0-4.228-.991-4.228-4.228v-.594c0-3.171.991-4.228,4.228-4.228h.463c3.238,0,4.228,1.056,4.228,4.228" transform="translate(-2.86 -6.113)" fill="#fff"/></g></g><g transform="translate(89.312 1945.253)"><path d="M8.918,28.52v.594c0,3.237-.99,4.228-4.228,4.228H4.228C.991,33.342,0,32.351,0,29.114V28.52c0-3.171.991-4.228,4.228-4.228H4.69c3.238,0,4.228,1.056,4.228,4.228" transform="translate(838.688 407.698)" fill="#fff"/><g transform="translate(838.688 416.747)"><path d="M8.918,7.4V8c0,3.237-.99,4.228-4.228,4.228H4.228C.991,12.226,0,11.236,0,8V7.4C0,4.233.991,3.177,4.228,3.177H4.69c3.238,0,4.228,1.056,4.228,4.228" transform="translate(0 -3.177)" fill="#fff"/><path d="M29.686,7.4V8c0,3.237-.99,4.228-4.228,4.228H25c-3.236,0-4.228-.99-4.228-4.228V7.4c0-3.171.991-4.228,4.228-4.228h.463c3.238,0,4.228,1.056,4.228,4.228" transform="translate(-5.775 -3.177)" fill="#fff"/><path d="M29.686,28.52v.594c0,3.237-.99,4.228-4.228,4.228H25c-3.236,0-4.228-.991-4.228-4.228V28.52c0-3.171.991-4.228,4.228-4.228h.463c3.238,0,4.228,1.056,4.228,4.228" transform="translate(-5.775 -9.049)" fill="#fff"/><path d="M19.2,17.962v.594c0,3.237-.99,4.228-4.228,4.228h-.463c-3.236,0-4.228-.991-4.228-4.228v-.594c0-3.171.991-4.228,4.228-4.228h.463c3.238,0,4.228,1.056,4.228,4.228" transform="translate(-2.86 -6.113)" fill="#fff"/></g></g><g transform="translate(89.312 1984.253)"><path d="M8.918,28.52v.594c0,3.237-.99,4.228-4.228,4.228H4.228C.991,33.342,0,32.351,0,29.114V28.52c0-3.171.991-4.228,4.228-4.228H4.69c3.238,0,4.228,1.056,4.228,4.228" transform="translate(838.688 407.698)" fill="#fff"/><g transform="translate(838.688 416.747)"><path d="M8.918,7.4V8c0,3.237-.99,4.228-4.228,4.228H4.228C.991,12.226,0,11.236,0,8V7.4C0,4.233.991,3.177,4.228,3.177H4.69c3.238,0,4.228,1.056,4.228,4.228" transform="translate(0 -3.177)" fill="#fff"/><path d="M29.686,7.4V8c0,3.237-.99,4.228-4.228,4.228H25c-3.236,0-4.228-.99-4.228-4.228V7.4c0-3.171.991-4.228,4.228-4.228h.463c3.238,0,4.228,1.056,4.228,4.228" transform="translate(-5.775 -3.177)" fill="#fff"/><path d="M29.686,28.52v.594c0,3.237-.99,4.228-4.228,4.228H25c-3.236,0-4.228-.991-4.228-4.228V28.52c0-3.171.991-4.228,4.228-4.228h.463c3.238,0,4.228,1.056,4.228,4.228" transform="translate(-5.775 -9.049)" fill="#fff"/><path d="M19.2,17.962v.594c0,3.237-.99,4.228-4.228,4.228h-.463c-3.236,0-4.228-.991-4.228-4.228v-.594c0-3.171.991-4.228,4.228-4.228h.463c3.238,0,4.228,1.056,4.228,4.228" transform="translate(-2.86 -6.113)" fill="#fff"/></g></g><g transform="translate(89.312 2023.253)"><path d="M8.918,28.52v.594c0,3.237-.99,4.228-4.228,4.228H4.228C.991,33.342,0,32.351,0,29.114V28.52c0-3.171.991-4.228,4.228-4.228H4.69c3.238,0,4.228,1.056,4.228,4.228" transform="translate(838.688 407.698)" fill="#fff"/><g transform="translate(838.688 416.747)"><path d="M8.918,7.4V8c0,3.237-.99,4.228-4.228,4.228H4.228C.991,12.226,0,11.236,0,8V7.4C0,4.233.991,3.177,4.228,3.177H4.69c3.238,0,4.228,1.056,4.228,4.228" transform="translate(0 -3.177)" fill="#fff"/><path d="M29.686,7.4V8c0,3.237-.99,4.228-4.228,4.228H25c-3.236,0-4.228-.99-4.228-4.228V7.4c0-3.171.991-4.228,4.228-4.228h.463c3.238,0,4.228,1.056,4.228,4.228" transform="translate(-5.775 -3.177)" fill="#fff"/><path d="M29.686,28.52v.594c0,3.237-.99,4.228-4.228,4.228H25c-3.236,0-4.228-.991-4.228-4.228V28.52c0-3.171.991-4.228,4.228-4.228h.463c3.238,0,4.228,1.056,4.228,4.228" transform="translate(-5.775 -9.049)" fill="#fff"/><path d="M19.2,17.962v.594c0,3.237-.99,4.228-4.228,4.228h-.463c-3.236,0-4.228-.991-4.228-4.228v-.594c0-3.171.991-4.228,4.228-4.228h.463c3.238,0,4.228,1.056,4.228,4.228" transform="translate(-2.86 -6.113)" fill="#fff"/></g></g><g transform="translate(89.312 2062.253)"><path d="M8.918,28.52v.594c0,3.237-.99,4.228-4.228,4.228H4.228C.991,33.342,0,32.351,0,29.114V28.52c0-3.171.991-4.228,4.228-4.228H4.69c3.238,0,4.228,1.056,4.228,4.228" transform="translate(838.688 407.698)" fill="#fff"/><g transform="translate(838.688 416.747)"><path d="M8.918,7.4V8c0,3.237-.99,4.228-4.228,4.228H4.228C.991,12.226,0,11.236,0,8V7.4C0,4.233.991,3.177,4.228,3.177H4.69c3.238,0,4.228,1.056,4.228,4.228" transform="translate(0 -3.177)" fill="#fff"/><path d="M29.686,7.4V8c0,3.237-.99,4.228-4.228,4.228H25c-3.236,0-4.228-.99-4.228-4.228V7.4c0-3.171.991-4.228,4.228-4.228h.463c3.238,0,4.228,1.056,4.228,4.228" transform="translate(-5.775 -3.177)" fill="#fff"/><path d="M29.686,28.52v.594c0,3.237-.99,4.228-4.228,4.228H25c-3.236,0-4.228-.991-4.228-4.228V28.52c0-3.171.991-4.228,4.228-4.228h.463c3.238,0,4.228,1.056,4.228,4.228" transform="translate(-5.775 -9.049)" fill="#fff"/><path d="M19.2,17.962v.594c0,3.237-.99,4.228-4.228,4.228h-.463c-3.236,0-4.228-.991-4.228-4.228v-.594c0-3.171.991-4.228,4.228-4.228h.463c3.238,0,4.228,1.056,4.228,4.228" transform="translate(-2.86 -6.113)" fill="#fff"/></g></g><g transform="translate(89.312 2101.253)"><path d="M8.918,28.52v.594c0,3.237-.99,4.228-4.228,4.228H4.228C.991,33.342,0,32.351,0,29.114V28.52c0-3.171.991-4.228,4.228-4.228H4.69c3.238,0,4.228,1.056,4.228,4.228" transform="translate(838.688 407.698)" fill="#fff"/><g transform="translate(838.688 416.747)"><path d="M8.918,7.4V8c0,3.237-.99,4.228-4.228,4.228H4.228C.991,12.226,0,11.236,0,8V7.4C0,4.233.991,3.177,4.228,3.177H4.69c3.238,0,4.228,1.056,4.228,4.228" transform="translate(0 -3.177)" fill="#fff"/><path d="M29.686,7.4V8c0,3.237-.99,4.228-4.228,4.228H25c-3.236,0-4.228-.99-4.228-4.228V7.4c0-3.171.991-4.228,4.228-4.228h.463c3.238,0,4.228,1.056,4.228,4.228" transform="translate(-5.775 -3.177)" fill="#fff"/><path d="M29.686,28.52v.594c0,3.237-.99,4.228-4.228,4.228H25c-3.236,0-4.228-.991-4.228-4.228V28.52c0-3.171.991-4.228,4.228-4.228h.463c3.238,0,4.228,1.056,4.228,4.228" transform="translate(-5.775 -9.049)" fill="#fff"/><path d="M19.2,17.962v.594c0,3.237-.99,4.228-4.228,4.228h-.463c-3.236,0-4.228-.991-4.228-4.228v-.594c0-3.171.991-4.228,4.228-4.228h.463c3.238,0,4.228,1.056,4.228,4.228" transform="translate(-2.86 -6.113)" fill="#fff"/></g></g><g transform="translate(89.312 2140.253)"><path d="M8.918,28.52v.594c0,3.237-.99,4.228-4.228,4.228H4.228C.991,33.342,0,32.351,0,29.114V28.52c0-3.171.991-4.228,4.228-4.228H4.69c3.238,0,4.228,1.056,4.228,4.228" transform="translate(838.688 407.698)" fill="#fff"/><g transform="translate(838.688 416.747)"><path d="M8.918,7.4V8c0,3.237-.99,4.228-4.228,4.228H4.228C.991,12.226,0,11.236,0,8V7.4C0,4.233.991,3.177,4.228,3.177H4.69c3.238,0,4.228,1.056,4.228,4.228" transform="translate(0 -3.177)" fill="#fff"/><path d="M29.686,7.4V8c0,3.237-.99,4.228-4.228,4.228H25c-3.236,0-4.228-.99-4.228-4.228V7.4c0-3.171.991-4.228,4.228-4.228h.463c3.238,0,4.228,1.056,4.228,4.228" transform="translate(-5.775 -3.177)" fill="#fff"/><path d="M29.686,28.52v.594c0,3.237-.99,4.228-4.228,4.228H25c-3.236,0-4.228-.991-4.228-4.228V28.52c0-3.171.991-4.228,4.228-4.228h.463c3.238,0,4.228,1.056,4.228,4.228" transform="translate(-5.775 -9.049)" fill="#fff"/><path d="M19.2,17.962v.594c0,3.237-.99,4.228-4.228,4.228h-.463c-3.236,0-4.228-.991-4.228-4.228v-.594c0-3.171.991-4.228,4.228-4.228h.463c3.238,0,4.228,1.056,4.228,4.228" transform="translate(-2.86 -6.113)" fill="#fff"/></g></g><g transform="translate(89.312 2179.253)"><path d="M8.918,28.52v.594c0,3.237-.99,4.228-4.228,4.228H4.228C.991,33.342,0,32.351,0,29.114V28.52c0-3.171.991-4.228,4.228-4.228H4.69c3.238,0,4.228,1.056,4.228,4.228" transform="translate(838.688 407.698)" fill="#fff"/><g transform="translate(838.688 416.747)"><path d="M8.918,7.4V8c0,3.237-.99,4.228-4.228,4.228H4.228C.991,12.226,0,11.236,0,8V7.4C0,4.233.991,3.177,4.228,3.177H4.69c3.238,0,4.228,1.056,4.228,4.228" transform="translate(0 -3.177)" fill="#fff"/><path d="M29.686,7.4V8c0,3.237-.99,4.228-4.228,4.228H25c-3.236,0-4.228-.99-4.228-4.228V7.4c0-3.171.991-4.228,4.228-4.228h.463c3.238,0,4.228,1.056,4.228,4.228" transform="translate(-5.775 -3.177)" fill="#fff"/><path d="M29.686,28.52v.594c0,3.237-.99,4.228-4.228,4.228H25c-3.236,0-4.228-.991-4.228-4.228V28.52c0-3.171.991-4.228,4.228-4.228h.463c3.238,0,4.228,1.056,4.228,4.228" transform="translate(-5.775 -9.049)" fill="#fff"/><path d="M19.2,17.962v.594c0,3.237-.99,4.228-4.228,4.228h-.463c-3.236,0-4.228-.991-4.228-4.228v-.594c0-3.171.991-4.228,4.228-4.228h.463c3.238,0,4.228,1.056,4.228,4.228" transform="translate(-2.86 -6.113)" fill="#fff"/></g></g><g transform="translate(89.312 2218.253)"><path d="M8.918,28.52v.594c0,3.237-.99,4.228-4.228,4.228H4.228C.991,33.342,0,32.351,0,29.114V28.52c0-3.171.991-4.228,4.228-4.228H4.69c3.238,0,4.228,1.056,4.228,4.228" transform="translate(838.688 407.698)" fill="#fff"/><g transform="translate(838.688 416.747)"><path d="M8.918,7.4V8c0,3.237-.99,4.228-4.228,4.228H4.228C.991,12.226,0,11.236,0,8V7.4C0,4.233.991,3.177,4.228,3.177H4.69c3.238,0,4.228,1.056,4.228,4.228" transform="translate(0 -3.177)" fill="#fff"/><path d="M29.686,7.4V8c0,3.237-.99,4.228-4.228,4.228H25c-3.236,0-4.228-.99-4.228-4.228V7.4c0-3.171.991-4.228,4.228-4.228h.463c3.238,0,4.228,1.056,4.228,4.228" transform="translate(-5.775 -3.177)" fill="#fff"/><path d="M29.686,28.52v.594c0,3.237-.99,4.228-4.228,4.228H25c-3.236,0-4.228-.991-4.228-4.228V28.52c0-3.171.991-4.228,4.228-4.228h.463c3.238,0,4.228,1.056,4.228,4.228" transform="translate(-5.775 -9.049)" fill="#fff"/><path d="M19.2,17.962v.594c0,3.237-.99,4.228-4.228,4.228h-.463c-3.236,0-4.228-.991-4.228-4.228v-.594c0-3.171.991-4.228,4.228-4.228h.463c3.238,0,4.228,1.056,4.228,4.228" transform="translate(-2.86 -6.113)" fill="#fff"/></g></g><g transform="translate(89.312 2257.253)"><path d="M8.918,28.52v.594c0,3.237-.99,4.228-4.228,4.228H4.228C.991,33.342,0,32.351,0,29.114V28.52c0-3.171.991-4.228,4.228-4.228H4.69c3.238,0,4.228,1.056,4.228,4.228" transform="translate(838.688 407.698)" fill="#fff"/><g transform="translate(838.688 416.747)"><path d="M8.918,7.4V8c0,3.237-.99,4.228-4.228,4.228H4.228C.991,12.226,0,11.236,0,8V7.4C0,4.233.991,3.177,4.228,3.177H4.69c3.238,0,4.228,1.056,4.228,4.228" transform="translate(0 -3.177)" fill="#fff"/><path d="M29.686,7.4V8c0,3.237-.99,4.228-4.228,4.228H25c-3.236,0-4.228-.99-4.228-4.228V7.4c0-3.171.991-4.228,4.228-4.228h.463c3.238,0,4.228,1.056,4.228,4.228" transform="translate(-5.775 -3.177)" fill="#fff"/><path d="M29.686,28.52v.594c0,3.237-.99,4.228-4.228,4.228H25c-3.236,0-4.228-.991-4.228-4.228V28.52c0-3.171.991-4.228,4.228-4.228h.463c3.238,0,4.228,1.056,4.228,4.228" transform="translate(-5.775 -9.049)" fill="#fff"/><path d="M19.2,17.962v.594c0,3.237-.99,4.228-4.228,4.228h-.463c-3.236,0-4.228-.991-4.228-4.228v-.594c0-3.171.991-4.228,4.228-4.228h.463c3.238,0,4.228,1.056,4.228,4.228" transform="translate(-2.86 -6.113)" fill="#fff"/></g></g><g transform="translate(89.312 2296.253)"><path d="M8.918,28.52v.594c0,3.237-.99,4.228-4.228,4.228H4.228C.991,33.342,0,32.351,0,29.114V28.52c0-3.171.991-4.228,4.228-4.228H4.69c3.238,0,4.228,1.056,4.228,4.228" transform="translate(838.688 407.698)" fill="#fff"/><g transform="translate(838.688 416.747)"><path d="M8.918,7.4V8c0,3.237-.99,4.228-4.228,4.228H4.228C.991,12.226,0,11.236,0,8V7.4C0,4.233.991,3.177,4.228,3.177H4.69c3.238,0,4.228,1.056,4.228,4.228" transform="translate(0 -3.177)" fill="#fff"/><path d="M29.686,7.4V8c0,3.237-.99,4.228-4.228,4.228H25c-3.236,0-4.228-.99-4.228-4.228V7.4c0-3.171.991-4.228,4.228-4.228h.463c3.238,0,4.228,1.056,4.228,4.228" transform="translate(-5.775 -3.177)" fill="#fff"/><path d="M29.686,28.52v.594c0,3.237-.99,4.228-4.228,4.228H25c-3.236,0-4.228-.991-4.228-4.228V28.52c0-3.171.991-4.228,4.228-4.228h.463c3.238,0,4.228,1.056,4.228,4.228" transform="translate(-5.775 -9.049)" fill="#fff"/><path d="M19.2,17.962v.594c0,3.237-.99,4.228-4.228,4.228h-.463c-3.236,0-4.228-.991-4.228-4.228v-.594c0-3.171.991-4.228,4.228-4.228h.463c3.238,0,4.228,1.056,4.228,4.228" transform="translate(-2.86 -6.113)" fill="#fff"/></g></g><g transform="translate(89.312 2335.253)"><path d="M8.918,28.52v.594c0,3.237-.99,4.228-4.228,4.228H4.228C.991,33.342,0,32.351,0,29.114V28.52c0-3.171.991-4.228,4.228-4.228H4.69c3.238,0,4.228,1.056,4.228,4.228" transform="translate(838.688 407.698)" fill="#fff"/><g transform="translate(838.688 416.747)"><path d="M8.918,7.4V8c0,3.237-.99,4.228-4.228,4.228H4.228C.991,12.226,0,11.236,0,8V7.4C0,4.233.991,3.177,4.228,3.177H4.69c3.238,0,4.228,1.056,4.228,4.228" transform="translate(0 -3.177)" fill="#fff"/><path d="M29.686,7.4V8c0,3.237-.99,4.228-4.228,4.228H25c-3.236,0-4.228-.99-4.228-4.228V7.4c0-3.171.991-4.228,4.228-4.228h.463c3.238,0,4.228,1.056,4.228,4.228" transform="translate(-5.775 -3.177)" fill="#fff"/><path d="M29.686,28.52v.594c0,3.237-.99,4.228-4.228,4.228H25c-3.236,0-4.228-.991-4.228-4.228V28.52c0-3.171.991-4.228,4.228-4.228h.463c3.238,0,4.228,1.056,4.228,4.228" transform="translate(-5.775 -9.049)" fill="#fff"/><path d="M19.2,17.962v.594c0,3.237-.99,4.228-4.228,4.228h-.463c-3.236,0-4.228-.991-4.228-4.228v-.594c0-3.171.991-4.228,4.228-4.228h.463c3.238,0,4.228,1.056,4.228,4.228" transform="translate(-2.86 -6.113)" fill="#fff"/></g></g><g transform="translate(89.312 2374.253)"><path d="M8.918,28.52v.594c0,3.237-.99,4.228-4.228,4.228H4.228C.991,33.342,0,32.351,0,29.114V28.52c0-3.171.991-4.228,4.228-4.228H4.69c3.238,0,4.228,1.056,4.228,4.228" transform="translate(838.688 407.698)" fill="#fff"/><g transform="translate(838.688 416.747)"><path d="M8.918,7.4V8c0,3.237-.99,4.228-4.228,4.228H4.228C.991,12.226,0,11.236,0,8V7.4C0,4.233.991,3.177,4.228,3.177H4.69c3.238,0,4.228,1.056,4.228,4.228" transform="translate(0 -3.177)" fill="#fff"/><path d="M29.686,7.4V8c0,3.237-.99,4.228-4.228,4.228H25c-3.236,0-4.228-.99-4.228-4.228V7.4c0-3.171.991-4.228,4.228-4.228h.463c3.238,0,4.228,1.056,4.228,4.228" transform="translate(-5.775 -3.177)" fill="#fff"/><path d="M29.686,28.52v.594c0,3.237-.99,4.228-4.228,4.228H25c-3.236,0-4.228-.991-4.228-4.228V28.52c0-3.171.991-4.228,4.228-4.228h.463c3.238,0,4.228,1.056,4.228,4.228" transform="translate(-5.775 -9.049)" fill="#fff"/><path d="M19.2,17.962v.594c0,3.237-.99,4.228-4.228,4.228h-.463c-3.236,0-4.228-.991-4.228-4.228v-.594c0-3.171.991-4.228,4.228-4.228h.463c3.238,0,4.228,1.056,4.228,4.228" transform="translate(-2.86 -6.113)" fill="#fff"/></g></g><g transform="translate(89.312 2413.253)"><path d="M8.918,28.52v.594c0,3.237-.99,4.228-4.228,4.228H4.228C.991,33.342,0,32.351,0,29.114V28.52c0-3.171.991-4.228,4.228-4.228H4.69c3.238,0,4.228,1.056,4.228,4.228" transform="translate(838.688 407.698)" fill="#fff"/><g transform="translate(838.688 416.747)"><path d="M8.918,7.4V8c0,3.237-.99,4.228-4.228,4.228H4.228C.991,12.226,0,11.236,0,8V7.4C0,4.233.991,3.177,4.228,3.177H4.69c3.238,0,4.228,1.056,4.228,4.228" transform="translate(0 -3.177)" fill="#fff"/><path d="M29.686,7.4V8c0,3.237-.99,4.228-4.228,4.228H25c-3.236,0-4.228-.99-4.228-4.228V7.4c0-3.171.991-4.228,4.228-4.228h.463c3.238,0,4.228,1.056,4.228,4.228" transform="translate(-5.775 -3.177)" fill="#fff"/><path d="M29.686,28.52v.594c0,3.237-.99,4.228-4.228,4.228H25c-3.236,0-4.228-.991-4.228-4.228V28.52c0-3.171.991-4.228,4.228-4.228h.463c3.238,0,4.228,1.056,4.228,4.228" transform="translate(-5.775 -9.049)" fill="#fff"/><path d="M19.2,17.962v.594c0,3.237-.99,4.228-4.228,4.228h-.463c-3.236,0-4.228-.991-4.228-4.228v-.594c0-3.171.991-4.228,4.228-4.228h.463c3.238,0,4.228,1.056,4.228,4.228" transform="translate(-2.86 -6.113)" fill="#fff"/></g></g><g transform="translate(89.312 2452.253)"><path d="M8.918,28.52v.594c0,3.237-.99,4.228-4.228,4.228H4.228C.991,33.342,0,32.351,0,29.114V28.52c0-3.171.991-4.228,4.228-4.228H4.69c3.238,0,4.228,1.056,4.228,4.228" transform="translate(838.688 407.698)" fill="#fff"/><g transform="translate(838.688 416.747)"><path d="M8.918,7.4V8c0,3.237-.99,4.228-4.228,4.228H4.228C.991,12.226,0,11.236,0,8V7.4C0,4.233.991,3.177,4.228,3.177H4.69c3.238,0,4.228,1.056,4.228,4.228" transform="translate(0 -3.177)" fill="#fff"/><path d="M29.686,7.4V8c0,3.237-.99,4.228-4.228,4.228H25c-3.236,0-4.228-.99-4.228-4.228V7.4c0-3.171.991-4.228,4.228-4.228h.463c3.238,0,4.228,1.056,4.228,4.228" transform="translate(-5.775 -3.177)" fill="#fff"/><path d="M29.686,28.52v.594c0,3.237-.99,4.228-4.228,4.228H25c-3.236,0-4.228-.991-4.228-4.228V28.52c0-3.171.991-4.228,4.228-4.228h.463c3.238,0,4.228,1.056,4.228,4.228" transform="translate(-5.775 -9.049)" fill="#fff"/><path d="M19.2,17.962v.594c0,3.237-.99,4.228-4.228,4.228h-.463c-3.236,0-4.228-.991-4.228-4.228v-.594c0-3.171.991-4.228,4.228-4.228h.463c3.238,0,4.228,1.056,4.228,4.228" transform="translate(-2.86 -6.113)" fill="#fff"/></g></g><g transform="translate(89.312 2491.253)"><path d="M8.918,28.52v.594c0,3.237-.99,4.228-4.228,4.228H4.228C.991,33.342,0,32.351,0,29.114V28.52c0-3.171.991-4.228,4.228-4.228H4.69c3.238,0,4.228,1.056,4.228,4.228" transform="translate(838.688 407.698)" fill="#fff"/><g transform="translate(838.688 416.747)"><path d="M8.918,7.4V8c0,3.237-.99,4.228-4.228,4.228H4.228C.991,12.226,0,11.236,0,8V7.4C0,4.233.991,3.177,4.228,3.177H4.69c3.238,0,4.228,1.056,4.228,4.228" transform="translate(0 -3.177)" fill="#fff"/><path d="M29.686,7.4V8c0,3.237-.99,4.228-4.228,4.228H25c-3.236,0-4.228-.99-4.228-4.228V7.4c0-3.171.991-4.228,4.228-4.228h.463c3.238,0,4.228,1.056,4.228,4.228" transform="translate(-5.775 -3.177)" fill="#fff"/><path d="M29.686,28.52v.594c0,3.237-.99,4.228-4.228,4.228H25c-3.236,0-4.228-.991-4.228-4.228V28.52c0-3.171.991-4.228,4.228-4.228h.463c3.238,0,4.228,1.056,4.228,4.228" transform="translate(-5.775 -9.049)" fill="#fff"/><path d="M19.2,17.962v.594c0,3.237-.99,4.228-4.228,4.228h-.463c-3.236,0-4.228-.991-4.228-4.228v-.594c0-3.171.991-4.228,4.228-4.228h.463c3.238,0,4.228,1.056,4.228,4.228" transform="translate(-2.86 -6.113)" fill="#fff"/></g></g><g transform="translate(89.312 2530.253)"><path d="M8.918,28.52v.594c0,3.237-.99,4.228-4.228,4.228H4.228C.991,33.342,0,32.351,0,29.114V28.52c0-3.171.991-4.228,4.228-4.228H4.69c3.238,0,4.228,1.056,4.228,4.228" transform="translate(838.688 407.698)" fill="#fff"/><g transform="translate(838.688 416.747)"><path d="M8.918,7.4V8c0,3.237-.99,4.228-4.228,4.228H4.228C.991,12.226,0,11.236,0,8V7.4C0,4.233.991,3.177,4.228,3.177H4.69c3.238,0,4.228,1.056,4.228,4.228" transform="translate(0 -3.177)" fill="#fff"/><path d="M29.686,7.4V8c0,3.237-.99,4.228-4.228,4.228H25c-3.236,0-4.228-.99-4.228-4.228V7.4c0-3.171.991-4.228,4.228-4.228h.463c3.238,0,4.228,1.056,4.228,4.228" transform="translate(-5.775 -3.177)" fill="#fff"/><path d="M29.686,28.52v.594c0,3.237-.99,4.228-4.228,4.228H25c-3.236,0-4.228-.991-4.228-4.228V28.52c0-3.171.991-4.228,4.228-4.228h.463c3.238,0,4.228,1.056,4.228,4.228" transform="translate(-5.775 -9.049)" fill="#fff"/><path d="M19.2,17.962v.594c0,3.237-.99,4.228-4.228,4.228h-.463c-3.236,0-4.228-.991-4.228-4.228v-.594c0-3.171.991-4.228,4.228-4.228h.463c3.238,0,4.228,1.056,4.228,4.228" transform="translate(-2.86 -6.113)" fill="#fff"/></g></g></g></g></g></svg>