<svg xmlns="http://www.w3.org/2000/svg" width="315.82" height="56.71" viewBox="0 0 315.82 56.71">
  <g id="Group_174" data-name="Group 174" transform="translate(-270.124 -7136.575)">
    <path id="Path_33" data-name="Path 33" d="M65.782,0C77.793,0,84.059,4.49,87.088,11.384c.732,1.356.312,2.193-.94,2.716l-2.611,1.149c-1.462.625-1.88.311-2.611-.941C78.733,9.5,74.974,6.37,65.887,6.37,56.7,6.37,52.2,9.5,52.2,15.457c0,8.251,6.579,8.981,15.771,9.818,11.384,1.044,20.366,3.446,20.366,15.456,0,9.714-7,15.979-21.41,15.979-11.488,0-19.114-3.968-22.558-12.95a1.617,1.617,0,0,1,1.147-2.507l2.717-.94c1.252-.417,1.878-.208,2.506,1.149,2.507,6.579,7.833,9.086,15.981,9.086,10.026,0,14.724-3.446,14.724-9.5,0-7.416-6.057-8.669-15.144-9.608-10.548-1.044-21.1-2.507-21.1-15.771C45.206,6.056,52.1,0,65.782,0" transform="translate(225.991 7136.575)" fill="#fff"/>
    <path id="Path_34" data-name="Path 34" d="M105.879,0c15.666,0,23.185,9.086,23.185,21.619v5.743c0,1.777-.836,2.925-3.132,2.925H89.8v6.058c0,8.877,5.326,14.308,15.666,14.308,8.564,0,13.472-3.447,16.4-8.669.939-1.254,1.667-1.463,3.028-.733L127.08,42.4c1.358.73,1.567,1.67.733,3.028-3.657,6.58-10.343,11.28-22.352,11.28C89.8,56.71,82.8,48.147,82.8,35.613V22.036C82.8,8.251,90.734,0,105.879,0m0,6.056C95.225,6.056,89.8,11.906,89.8,21.2v3.657h32.271V21.2c0-9.293-5.431-15.144-16.188-15.144" transform="translate(240.3 7136.575)" fill="#fff"/>
    <path id="Path_35" data-name="Path 35" d="M147.883,0c14.415,0,20.784,7.623,20.784,20.469v32.9c0,1.463-.522,1.88-1.881,1.88H163.55c-1.462,0-1.88-.417-1.88-1.88V20.679c0-9.4-4.6-14.2-14.622-14.2a41.476,41.476,0,0,0-13.893,2.3,2.42,2.42,0,0,0-1.566,2.611V53.369c0,1.463-.522,1.88-1.878,1.88h-3.343c-1.358,0-1.88-.417-1.88-1.88V9.295c0-3.239.836-4.386,3.969-5.745A48.75,48.75,0,0,1,147.883,0" transform="translate(255.73 7136.575)" fill="#fff"/>
    <path id="Path_36" data-name="Path 36" d="M185.825,0c12.013,0,18.278,4.49,21.306,11.384.733,1.356.314,2.193-.94,2.716l-2.611,1.149c-1.461.625-1.878.311-2.61-.941-2.194-4.8-5.953-7.938-15.039-7.938-9.191,0-13.682,3.135-13.682,9.088,0,8.251,6.579,8.981,15.771,9.818,11.383,1.044,20.366,3.446,20.366,15.456,0,9.714-7,15.979-21.412,15.979-11.488,0-19.113-3.968-22.558-12.95a1.618,1.618,0,0,1,1.148-2.507l2.716-.94c1.254-.417,1.878-.208,2.506,1.149,2.507,6.579,7.833,9.086,15.981,9.086,10.026,0,14.726-3.446,14.726-9.5,0-7.416-6.057-8.669-15.145-9.608-10.547-1.044-21.1-2.507-21.1-15.771C165.249,6.056,172.143,0,185.825,0" transform="translate(270.417 7136.575)" fill="#fff"/>
    <path id="Path_37" data-name="Path 37" d="M225.921,0c15.667,0,23.186,9.086,23.186,21.619v5.743c0,1.777-.837,2.925-3.133,2.925H209.837v6.058c0,8.877,5.326,14.308,15.667,14.308,8.563,0,13.471-3.447,16.4-8.669.94-1.254,1.67-1.463,3.028-.733l2.195,1.151c1.356.73,1.566,1.67.732,3.028-3.657,6.58-10.341,11.28-22.35,11.28-15.667,0-22.665-8.563-22.665-21.1V22.036C202.839,8.251,210.776,0,225.921,0m0,6.056c-10.652,0-16.083,5.85-16.083,15.144v3.657h32.271V21.2c0-9.293-5.43-15.144-16.188-15.144" transform="translate(284.726 7136.575)" fill="#fff"/>
    <path id="Path_38" data-name="Path 38" d="M264.025,0c12.013,0,18.278,4.49,21.306,11.384.732,1.356.314,2.193-.94,2.716l-2.611,1.149c-1.461.625-1.878.311-2.61-.941-2.193-4.8-5.953-7.938-15.039-7.938-9.19,0-13.682,3.135-13.682,9.088,0,8.251,6.579,8.981,15.771,9.818,11.383,1.044,20.366,3.446,20.366,15.456,0,9.714-7,15.979-21.412,15.979-11.488,0-19.113-3.968-22.559-12.95a1.618,1.618,0,0,1,1.148-2.507l2.715-.94c1.254-.417,1.878-.208,2.506,1.149,2.507,6.579,7.833,9.086,15.981,9.086,10.026,0,14.726-3.446,14.726-9.5,0-7.416-6.057-8.669-15.145-9.608-10.548-1.044-21.1-2.507-21.1-15.771C243.449,6.056,250.343,0,264.025,0" transform="translate(299.358 7136.575)" fill="#fff"/>
  </g>
</svg>
