<svg xmlns="http://www.w3.org/2000/svg" width="145.311" height="147.637" viewBox="0 0 145.311 147.637">
  <g id="Group_341" data-name="Group 341" transform="translate(-838.688 -416.747)">
    <path id="Path_9" data-name="Path 9" d="M54.2,49.984v3.611c0,19.673-6.015,25.7-25.692,25.7H25.692C6.024,79.291,0,73.267,0,53.595V49.984C0,30.711,6.024,24.292,25.692,24.292H28.5c19.677,0,25.692,6.419,25.692,25.692" transform="translate(838.688 485.092)" fill="#fff"/>
    <g id="Group_94" data-name="Group 94" transform="translate(838.688 416.747)">
      <path id="Path_7" data-name="Path 7" d="M54.2,28.869V32.48c0,19.673-6.015,25.692-25.692,25.692H25.692C6.024,58.172,0,52.152,0,32.48V28.869C0,9.6,6.024,3.177,25.692,3.177H28.5C48.181,3.177,54.2,9.6,54.2,28.869" transform="translate(0 -3.177)" fill="#fff"/>
      <path id="Path_8" data-name="Path 8" d="M74.964,28.869V32.48c0,19.673-6.015,25.692-25.692,25.692H46.46c-19.668,0-25.692-6.019-25.692-25.692V28.869C20.768,9.6,26.792,3.177,46.46,3.177h2.812c19.677,0,25.692,6.419,25.692,25.692" transform="translate(70.347 -3.177)" fill="#fff"/>
      <path id="Path_10" data-name="Path 10" d="M74.964,49.984v3.611c0,19.673-6.015,25.7-25.692,25.7H46.46c-19.668,0-25.692-6.024-25.692-25.7V49.984c0-19.273,6.024-25.692,25.692-25.692h2.812c19.677,0,25.692,6.419,25.692,25.692" transform="translate(70.347 68.346)" fill="#fff"/>
      <path id="Path_11" data-name="Path 11" d="M64.481,39.426v3.611c0,19.673-6.015,25.7-25.692,25.7H35.977c-19.668,0-25.692-6.024-25.692-25.7V39.426c0-19.273,6.024-25.692,25.692-25.692h2.812c19.677,0,25.692,6.419,25.692,25.692" transform="translate(34.838 32.583)" fill="#fff"/>
    </g>
  </g>
</svg>
