<svg xmlns="http://www.w3.org/2000/svg" width="479.004" height="23.911" viewBox="0 0 479.004 23.911"><g transform="translate(-43.5 -2442.794)"><line x2="170" transform="translate(45 2455)" fill="none" stroke="#fff" stroke-linecap="round" stroke-width="3"/><line y1="0.5" x2="170" transform="translate(351 2454.75)" fill="none" stroke="#fff" stroke-linecap="round" stroke-width="3"/><g transform="translate(713.1 1604.107) rotate(90)"><path d="M8.918,28.52v.594c0,3.237-.99,4.228-4.228,4.228H4.228C.991,33.342,0,32.351,0,29.114V28.52c0-3.171.991-4.228,4.228-4.228H4.69c3.238,0,4.228,1.056,4.228,4.228" transform="translate(838.688 407.698)" fill="#fff"/><g transform="translate(838.688 416.747)"><path d="M8.918,7.4V8c0,3.237-.99,4.228-4.228,4.228H4.228C.991,12.226,0,11.236,0,8V7.4C0,4.233.991,3.177,4.228,3.177H4.69c3.238,0,4.228,1.056,4.228,4.228" transform="translate(0 -3.177)" fill="#fff"/><path d="M29.686,7.4V8c0,3.237-.99,4.228-4.228,4.228H25c-3.236,0-4.228-.99-4.228-4.228V7.4c0-3.171.991-4.228,4.228-4.228h.463c3.238,0,4.228,1.056,4.228,4.228" transform="translate(-5.775 -3.177)" fill="#fff"/><path d="M29.686,28.52v.594c0,3.237-.99,4.228-4.228,4.228H25c-3.236,0-4.228-.991-4.228-4.228V28.52c0-3.171.991-4.228,4.228-4.228h.463c3.238,0,4.228,1.056,4.228,4.228" transform="translate(-5.775 -9.049)" fill="#fff"/><path d="M19.2,17.962v.594c0,3.237-.99,4.228-4.228,4.228h-.463c-3.236,0-4.228-.991-4.228-4.228v-.594c0-3.171.991-4.228,4.228-4.228h.463c3.238,0,4.228,1.056,4.228,4.228" transform="translate(-2.86 -6.113)" fill="#fff"/></g></g></g></svg>