<svg xmlns="http://www.w3.org/2000/svg" width="242.624" height="246.506" viewBox="0 0 242.624 246.506"><g transform="translate(-838.688 -416.747)"><path d="M90.49,67.189v6.029c0,32.847-10.043,42.9-42.9,42.9H42.9c-32.84,0-42.9-10.058-42.9-42.9V67.189c0-32.18,10.058-42.9,42.9-42.9h4.7c32.854,0,42.9,10.717,42.9,42.9" transform="translate(838.688 547.13)" fill="#fff"/><path d="M90.49,46.074V52.1c0,32.847-10.043,42.9-42.9,42.9H42.9C10.058,95,0,84.95,0,52.1V46.074c0-32.18,10.058-42.9,42.9-42.9h4.7c32.854,0,42.9,10.717,42.9,42.9" transform="translate(838.688 413.57)" fill="#fff"/><path d="M111.258,46.074V52.1c0,32.847-10.043,42.9-42.9,42.9h-4.7c-32.84,0-42.9-10.05-42.9-42.9V46.074c0-32.18,10.058-42.9,42.9-42.9h4.7c32.854,0,42.9,10.717,42.9,42.9" transform="translate(970.053 413.57)" fill="#fff"/><path d="M111.258,67.189v6.029c0,32.847-10.043,42.9-42.9,42.9h-4.7c-32.84,0-42.9-10.058-42.9-42.9V67.189c0-32.18,10.058-42.9,42.9-42.9h4.7c32.854,0,42.9,10.717,42.9,42.9" transform="translate(970.053 547.13)" fill="#fff"/><path d="M100.775,56.631V62.66c0,32.847-10.043,42.9-42.9,42.9h-4.7c-32.84,0-42.9-10.058-42.9-42.9V56.631c0-32.18,10.058-42.9,42.9-42.9h4.7c32.854,0,42.9,10.717,42.9,42.9" transform="translate(903.744 480.347)" fill="#fff"/></g></svg>